<?xml version="1.0" encoding="iso-8859-1"?>
<!-- Generator: Adobe Illustrator 19.1.0, SVG Export Plug-In . SVG Version: 6.00 Build 0)  -->
<svg version="1.1" id="Capa_1" xmlns="http://www.w3.org/2000/svg" xmlns:xlink="http://www.w3.org/1999/xlink" x="0px" y="0px"
	 viewBox="0 0 60.273 60.273" style="enable-background:new 0 0 60.273 60.273;" xml:space="preserve">
<g>
	<g id="group-14svg">
		<path id="path-1_4_" d="M30.136,60.264C13.519,60.264,0,46.75,0,30.138C0,13.524,13.519,0.009,30.136,0.009
			s30.137,13.516,30.137,30.129C60.273,46.75,46.753,60.264,30.136,60.264z M30.136,3.009C15.173,3.009,3,15.179,3,30.138
			c0,14.958,12.173,27.128,27.136,27.128s27.137-12.17,27.137-27.128C57.273,15.179,45.099,3.009,30.136,3.009z"/>
		<path id="path-2_4_" d="M28.112,34.922c0.094,0.951,0.252,1.658,0.483,2.161c0.321,0.697,0.941,1.081,1.744,1.081
			c0.787,0,1.408-0.385,1.751-1.086c0.257-0.526,0.418-1.226,0.49-2.136l0.591-6.776c0.067-0.652,0.101-1.294,0.101-1.926
			c0-1.159-0.156-2.043-0.479-2.707c-0.281-0.574-0.906-1.257-2.288-1.257c-0.876,0-1.6,0.299-2.148,0.888
			c-0.538,0.573-0.813,1.354-0.813,2.319c0,0.569,0.042,1.509,0.126,2.819L28.112,34.922z"/>
		<path id="path-3_4_" d="M28.375,39.836c-0.543,0.541-0.831,1.234-0.831,2.006c0,0.874,0.311,1.604,0.899,2.116
			c0.563,0.486,1.229,0.733,1.979,0.733c0.745,0,1.408-0.251,1.967-0.749c0.578-0.513,0.883-1.239,0.883-2.1
			c0-0.776-0.294-1.472-0.847-2.011C31.306,38.735,29.469,38.74,28.375,39.836z"/>
	</g>
</g>
<g>
</g>
<g>
</g>
<g>
</g>
<g>
</g>
<g>
</g>
<g>
</g>
<g>
</g>
<g>
</g>
<g>
</g>
<g>
</g>
<g>
</g>
<g>
</g>
<g>
</g>
<g>
</g>
<g>
</g>
</svg>
